<?xml version="1.0" standalone="no"?>
<!DOCTYPE svg PUBLIC "-//W3C//DTD SVG 20010904//EN"
 "http://www.w3.org/TR/2001/REC-SVG-20010904/DTD/svg10.dtd">
<svg version="1.0" xmlns="http://www.w3.org/2000/svg"
 width="1600.000000pt" height="1600.000000pt" viewBox="0 0 1600.000000 1600.000000"
 preserveAspectRatio="xMidYMid meet">

<g transform="translate(0.000000,1600.000000) scale(0.100000,-0.100000)"
fill="#ffffff" stroke="none">
<path d="M3542 15980 c-200 -53 -359 -197 -430 -391 l-27 -74 -5 -4065 -5
-4065 -995 -5 -995 -5 -59 -23 c-160 -60 -272 -164 -345 -317 -50 -104 -63
-159 -63 -275 1 -178 60 -305 209 -451 57 -56 6229 -5668 6748 -6137 118 -106
280 -172 425 -172 145 0 307 66 425 172 519 469 6691 6081 6748 6137 150 146
207 270 208 451 0 117 -12 171 -62 275 -73 153 -185 257 -345 317 l-59 23
-995 5 -995 5 -5 4065 c-4 3382 -7 4072 -19 4105 -74 221 -232 370 -449 426
-74 19 -158 19 -4456 18 -4278 0 -4383 -1 -4454 -19z m8150 -5267 c3 -3904 4
-4060 21 -4113 71 -213 227 -364 440 -428 42 -12 141 -16 533 -21 l482 -6
-2580 -2345 c-1419 -1290 -2583 -2345 -2588 -2345 -5 0 -1169 1055 -2588 2345
l-2580 2345 482 6 c519 6 525 7 642 64 178 87 306 254 339 442 12 66 14 713
15 4096 l0 4017 3690 0 3690 0 2 -4057z"/>
<path d="M7436 12899 c-51 -40 -51 -37 -56 -482 l-5 -419 -88 -34 c-253 -98
-484 -250 -665 -438 -333 -347 -499 -820 -462 -1315 19 -243 74 -443 186 -666
209 -420 590 -745 1049 -894 171 -55 309 -79 550 -95 234 -16 299 -31 400 -91
117 -71 208 -183 246 -304 28 -90 28 -232 0 -322 -56 -178 -211 -319 -407
-369 -105 -27 -263 -27 -368 0 -234 60 -404 245 -425 465 l-6 60 -566 3 -566
2 -34 -23 c-18 -12 -40 -34 -47 -47 -27 -51 10 -289 73 -475 131 -380 399
-713 751 -932 102 -64 165 -96 284 -144 l95 -38 5 -358 c5 -389 5 -388 63
-423 31 -19 55 -20 557 -20 502 0 526 1 557 20 59 35 58 28 61 485 l3 420 67
24 c262 90 560 292 746 506 382 440 511 1076 330 1634 -37 114 -155 344 -231
451 -84 117 -270 307 -383 390 -320 235 -634 343 -1088 375 -235 16 -269 23
-369 71 -132 63 -242 189 -284 323 -26 84 -28 226 -4 308 39 136 150 270 277
334 185 93 451 93 635 0 159 -80 276 -246 292 -416 l6 -60 563 -3 c622 -2 602
-4 643 61 18 28 20 42 14 112 -22 293 -165 638 -371 896 -198 248 -509 473
-789 569 l-50 17 -5 389 c-5 414 -5 413 -56 453 -26 21 -35 21 -564 21 -529 0
-538 0 -564 -21z"/>
</g>
</svg>
