<?xml version="1.0" standalone="no"?>
<!DOCTYPE svg PUBLIC "-//W3C//DTD SVG 20010904//EN"
 "http://www.w3.org/TR/2001/REC-SVG-20010904/DTD/svg10.dtd">
<svg version="1.0" xmlns="http://www.w3.org/2000/svg"
 width="1600.000000pt" height="1600.000000pt" viewBox="0 0 1887.000000 1920.000000"
 preserveAspectRatio="xMidYMid meet">
<metadata>
Created by potrace 1.16, written by Peter Selinger 2001-2019
</metadata>
<g transform="translate(0.000000,1920.000000) scale(0.100000,-0.100000)"
fill="#ffffff" stroke="none">
<path d="M3769 19186 c-241 -53 -402 -243 -444 -524 -12 -79 -15 -252 -15
-952 0 -538 4 -887 11 -940 40 -331 254 -550 554 -567 290 -17 526 170 602
477 17 70 18 135 18 1035 l0 960 -22 78 c-36 126 -79 203 -158 282 -80 80
-160 123 -272 149 -83 19 -194 19 -274 2z"/>
<path d="M9323 19189 c-119 -20 -249 -91 -323 -177 -56 -66 -106 -172 -127
-272 -16 -78 -18 -161 -17 -1040 0 -1068 -3 -1031 70 -1180 27 -56 57 -94 113
-150 109 -107 213 -154 366 -166 166 -12 313 43 435 166 85 85 128 160 162
285 21 79 21 87 21 1040 -1 1079 1 1049 -74 1203 -109 223 -353 337 -626 291z"/>
<path d="M14841 19185 c-173 -39 -304 -141 -380 -295 -77 -158 -74 -115 -79
-1120 -4 -957 -1 -1025 44 -1159 89 -266 322 -426 589 -407 300 21 514 244
545 566 14 138 13 1773 -1 1885 -25 203 -116 363 -258 454 -117 75 -319 108
-460 76z"/>
<path d="M16138 17273 c-4 -519 -5 -554 -27 -656 -119 -579 -524 -948 -1078
-983 -239 -15 -485 53 -695 192 -142 94 -302 281 -386 449 -42 85 -88 219
-114 333 -20 91 -22 127 -25 630 l-4 532 -1603 0 -1604 0 -5 -517 c-5 -565
-10 -619 -67 -803 -97 -315 -298 -557 -575 -695 -189 -95 -373 -133 -581 -121
-280 15 -521 122 -720 320 -160 159 -264 338 -319 550 -49 190 -53 256 -54
844 l-1 422 -1604 0 -1605 0 -4 -532 c-4 -591 -6 -610 -78 -815 -178 -505
-615 -812 -1124 -790 -248 11 -449 81 -638 223 -234 176 -391 437 -458 761
-22 102 -23 136 -27 644 l-4 536 -376 7 c-374 6 -761 -4 -895 -24 -207 -31
-402 -91 -572 -176 -398 -199 -691 -562 -810 -1004 -36 -134 -54 -246 -65
-406 -15 -209 -23 -8305 -11 -11699 8 -2530 11 -2913 25 -3004 49 -331 134
-570 283 -795 89 -136 263 -310 399 -399 222 -147 491 -240 804 -279 157 -19
15665 -19 15820 0 352 45 622 138 855 295 117 79 284 247 361 362 149 224 240
484 291 830 16 113 17 530 20 7280 3 4617 0 7236 -6 7375 -7 143 -17 250 -31
320 -123 614 -551 1086 -1116 1233 -237 62 -490 81 -1331 102 l-241 6 -4 -548z
m1979 -4100 c5 -16 8 -2613 8 -5773 0 -4672 -2 -5761 -13 -5830 -22 -140 -60
-269 -109 -370 -40 -80 -62 -110 -138 -186 -127 -127 -241 -183 -481 -236
l-99 -22 -7790 -4 c-5541 -2 -7818 0 -7886 8 -259 29 -443 105 -584 241 -126
122 -212 305 -252 539 -17 100 -18 377 -20 5883 l-3 5777 8680 0 8680 0 7 -27z"/>
<path d="M3235 11843 c-141 -30 -295 -124 -382 -232 -25 -31 -62 -92 -84 -136
-70 -143 -70 -146 -66 -889 3 -636 4 -663 23 -721 77 -225 230 -378 449 -453
l80 -27 670 0 670 0 80 27 c219 75 372 228 449 453 19 58 20 85 23 721 3 562
2 672 -11 734 -54 259 -268 472 -528 524 -111 23 -1267 22 -1373 -1z"/>
<path d="M6949 11850 c-149 -23 -262 -81 -375 -194 -90 -91 -140 -171 -176
-286 l-23 -75 0 -675 0 -675 23 -75 c36 -116 85 -195 177 -286 63 -63 100 -90
166 -123 161 -78 133 -76 859 -76 578 0 652 2 712 17 245 63 437 254 498 494
19 73 20 113 20 724 0 606 -1 652 -19 722 -61 239 -243 423 -486 495 -54 15
-122 17 -690 19 -346 1 -655 -2 -686 -6z"/>
<path d="M10552 11831 c-247 -61 -447 -266 -503 -516 -11 -47 -14 -199 -14
-705 l0 -645 23 -75 c40 -126 88 -207 177 -296 90 -90 170 -140 285 -176 l75
-23 680 0 680 0 75 23 c114 36 195 86 286 176 64 64 90 99 122 166 79 162 77
134 77 860 0 726 1 712 -75 859 -72 138 -173 237 -305 301 -146 70 -146 70
-867 69 -582 0 -650 -2 -716 -18z"/>
<path d="M14232 11830 c-188 -49 -346 -179 -433 -355 -71 -145 -69 -124 -69
-855 0 -733 -2 -709 72 -860 58 -119 177 -238 298 -297 150 -73 149 -73 857
-73 696 0 707 1 841 65 175 83 295 220 360 410 l27 80 3 640 c2 556 1 650 -13
719 -53 260 -244 460 -501 526 -73 19 -111 20 -723 19 -603 0 -651 -1 -719
-19z"/>
<path d="M3255 8226 c-269 -51 -478 -254 -539 -523 -23 -102 -24 -1299 -1
-1408 40 -193 179 -372 357 -459 153 -76 150 -76 853 -76 703 0 700 0 853 76
131 64 232 165 296 296 78 157 77 149 74 902 l-3 661 -24 65 c-82 231 -248
389 -477 457 -53 15 -123 17 -689 19 -485 2 -646 0 -700 -10z"/>
<path d="M6985 8234 c-11 -2 -45 -9 -75 -15 -30 -6 -97 -31 -149 -56 -129 -62
-238 -169 -299 -293 -80 -162 -77 -132 -77 -875 0 -610 1 -665 18 -725 53
-185 195 -361 357 -438 151 -72 161 -73 885 -70 639 3 640 3 710 27 176 58
328 187 403 341 78 158 75 135 80 793 4 615 -2 734 -37 847 -64 203 -234 368
-456 441 l-70 23 -635 2 c-349 1 -644 0 -655 -2z"/>
<path d="M10565 8216 c-225 -58 -404 -217 -481 -430 -42 -115 -45 -193 -42
-841 4 -683 2 -655 80 -815 33 -67 58 -102 122 -165 89 -89 171 -138 296 -177
l75 -23 655 0 c595 0 661 2 719 18 247 68 430 252 492 495 18 70 19 115 19
716 0 720 0 718 -71 864 -54 112 -178 239 -286 295 -149 78 -144 77 -877 76
-491 0 -663 -4 -701 -13z"/>
<path d="M14245 8204 c-185 -45 -359 -189 -445 -368 -65 -138 -65 -134 -65
-841 0 -578 2 -646 17 -705 53 -196 186 -360 359 -443 155 -74 127 -72 859
-72 732 0 704 -2 859 72 77 37 108 59 170 122 84 84 140 172 174 271 22 64 22
72 25 732 3 742 3 735 -63 871 -88 180 -253 314 -446 361 -57 14 -150 16 -725
15 -539 -1 -670 -3 -719 -15z"/>
<path d="M3277 4609 c-146 -19 -312 -109 -415 -225 -59 -66 -124 -190 -150
-284 -15 -59 -17 -127 -17 -705 0 -509 3 -651 14 -695 66 -267 273 -465 539
-516 108 -20 1246 -20 1354 0 205 39 380 169 475 352 80 155 78 127 78 854 0
718 1 701 -70 845 -86 175 -234 298 -425 356 -74 23 -83 23 -695 25 -341 1
-651 -2 -688 -7z"/>
<path d="M6978 4610 c-156 -19 -280 -81 -399 -200 -69 -68 -94 -102 -128 -170
-70 -144 -71 -147 -71 -851 0 -588 1 -630 19 -702 52 -201 182 -361 366 -448
142 -68 160 -69 844 -69 697 0 708 1 856 74 161 80 281 215 340 386 l30 85 3
650 c3 715 2 726 -58 853 -90 190 -243 318 -455 378 -53 16 -126 18 -670 20
-335 1 -640 -2 -677 -6z"/>
<path d="M10645 4593 c-266 -39 -477 -214 -563 -468 l-27 -80 -3 -636 c-3
-725 -4 -721 74 -877 63 -130 164 -231 292 -295 158 -79 148 -78 887 -75 l650
3 80 28 c207 73 364 230 433 432 l27 80 3 641 c3 713 2 726 -61 859 -70 145
-173 251 -312 319 -145 72 -120 70 -820 72 -346 1 -643 0 -660 -3z"/>
</g>
</svg>
