<?xml version="1.0" standalone="no"?>
<!DOCTYPE svg PUBLIC "-//W3C//DTD SVG 20010904//EN"
 "http://www.w3.org/TR/2001/REC-SVG-20010904/DTD/svg10.dtd">
<svg version="1.0" xmlns="http://www.w3.org/2000/svg"
 width="894.000000pt" height="980.000000pt" viewBox="0 0 894.000000 980.000000"
 preserveAspectRatio="xMidYMid meet">

<g transform="translate(0.000000,980.000000) scale(0.100000,-0.100000)"
fill="#ffffff" stroke="none">
<path d="M4394 9782 c-55 -19 -60 -23 -240 -180 -707 -616 -1634 -1052 -2614
-1228 -334 -60 -626 -84 -1035 -84 -337 0 -346 -2 -420 -75 -59 -59 -78 -114
-83 -230 -5 -129 15 -1169 28 -1430 79 -1597 321 -2717 796 -3675 274 -553
570 -968 993 -1390 640 -638 1453 -1113 2471 -1445 181 -59 188 -58 445 29
717 242 1340 562 1860 955 275 208 618 532 824 780 450 541 769 1120 1012
1841 273 807 421 1710 479 2920 14 294 33 1413 25 1475 -13 101 -74 187 -159
226 -37 17 -70 19 -343 19 -528 0 -958 50 -1415 165 -833 210 -1600 602 -2216
1134 -196 169 -210 180 -264 196 -65 19 -81 19 -144 -3z m161 -717 c997 -815
2276 -1285 3624 -1331 l204 -7 -6 -411 c-17 -1024 -75 -1729 -198 -2406 -322
-1758 -1096 -2969 -2401 -3753 -343 -205 -705 -373 -1149 -530 l-155 -55 -125
43 c-1072 370 -1872 907 -2474 1660 -577 721 -956 1654 -1145 2820 -102 626
-150 1273 -166 2231 l-7 401 199 6 c1350 46 2637 518 3629 1331 44 36 82 66
85 66 3 0 41 -30 85 -65z"/>
<path d="M4245 7363 c-322 -40 -553 -107 -820 -238 -734 -361 -1230 -1075
-1316 -1894 -16 -158 -6 -472 20 -626 131 -766 606 -1404 1302 -1749 648 -322
1419 -326 2074 -12 253 121 453 264 655 466 369 369 595 817 677 1340 25 162
25 530 -1 685 -69 421 -215 769 -459 1094 -87 116 -282 320 -392 408 -348 281
-765 460 -1208 518 -108 14 -445 19 -532 8z m435 -344 c493 -45 950 -268 1296
-632 586 -616 727 -1543 350 -2304 -461 -931 -1525 -1369 -2504 -1032 -652
225 -1151 772 -1316 1439 -41 168 -56 301 -56 495 0 193 15 327 56 489 246
983 1168 1638 2174 1545z"/>
<path d="M4738 5113 l-718 -718 -333 333 -332 332 -128 -128 -127 -127 460
-460 460 -460 850 850 850 850 -122 122 c-68 68 -127 123 -133 123 -5 0 -333
-323 -727 -717z"/>
</g>
</svg>
