<?xml version="1.0" standalone="no"?>
<!DOCTYPE svg PUBLIC "-//W3C//DTD SVG 20010904//EN"
 "http://www.w3.org/TR/2001/REC-SVG-20010904/DTD/svg10.dtd">
<svg version="1.0" xmlns="http://www.w3.org/2000/svg"
 width="512.000000pt" height="512.000000pt" viewBox="0 0 512.000000 512.000000"
 preserveAspectRatio="xMidYMid meet">

<g transform="translate(0.000000,512.000000) scale(0.100000,-0.100000)"
fill="#ffffff" stroke="none">
<path d="M4039 4900 c-164 -20 -313 -82 -411 -170 -68 -60 -138 -163 -177
-257 l-28 -68 -490 -3 -491 -2 -996 -1010 c-884 -896 -996 -1013 -996 -1040 0
-26 22 -54 130 -169 l130 -139 0 -295 0 -295 600 -594 c401 -396 615 -601 646
-617 62 -33 151 -34 214 -1 31 16 266 242 740 710 382 378 779 770 883 871
l187 184 0 320 0 319 53 54 52 53 3 432 3 432 87 34 c133 51 218 105 308 195
122 122 170 238 181 436 22 412 -237 669 -628 620z m271 -176 c137 -61 210
-202 210 -404 0 -239 -97 -389 -322 -500 l-103 -50 -5 87 c-5 81 -3 89 15 97
11 5 45 21 75 35 80 36 181 139 208 214 72 191 -40 374 -249 408 -74 12 -181
-9 -248 -47 -82 -48 -175 -154 -228 -260 -44 -89 -47 -102 -51 -187 -4 -90 -3
-94 32 -161 40 -77 45 -119 19 -174 -19 -41 -78 -102 -97 -102 -21 0 -40 227
-33 410 10 291 87 465 251 572 147 95 389 124 526 62z m-167 -265 c82 -23 134
-99 117 -174 -21 -92 -159 -197 -255 -194 -37 1 -47 9 -119 85 -78 82 -79 84
-65 111 8 15 41 55 74 89 81 83 158 108 248 83z m-760 -327 c-5 -102 -9 -129
-22 -136 -9 -5 -36 -29 -60 -54 -143 -148 -115 -362 59 -441 88 -40 205 -16
304 61 153 120 206 281 135 414 -35 66 -52 114 -40 114 5 0 47 -42 95 -94 l86
-94 0 -544 0 -544 -972 -944 c-534 -520 -974 -945 -978 -945 -10 0 -1361 1418
-1358 1425 2 4 425 435 942 958 l938 952 439 0 439 0 -7 -128z m21 -441 c7
-51 6 -53 -10 -40 -29 24 -44 73 -34 107 21 74 28 62 44 -67z m436 -1403 l0
-213 -857 -845 c-470 -465 -867 -851 -881 -858 -57 -32 -55 -34 -665 571
l-578 572 3 184 3 183 480 -503 c264 -277 509 -534 545 -571 54 -57 71 -68 98
-68 29 0 114 80 935 879 496 484 905 880 910 880 4 1 7 -95 7 -211z"/>
<path d="M2580 3295 c-62 -28 -102 -67 -127 -123 -39 -84 -30 -148 42 -286 62
-119 71 -162 40 -196 -56 -61 -178 56 -194 185 l-6 50 -109 3 -108 3 7 -48 c9
-63 38 -138 76 -197 l30 -48 -22 -24 -23 -24 59 -60 59 -60 31 29 c29 28 31
29 58 14 36 -19 121 -28 180 -19 91 14 179 102 193 193 9 62 -15 142 -78 264
-39 74 -49 103 -44 123 26 102 182 2 194 -123 l5 -51 108 0 109 0 -7 33 c-9
50 -38 129 -61 167 l-22 35 32 32 32 33 -57 57 -57 57 -33 -32 -34 -33 -53 27
c-67 34 -168 42 -220 19z"/>
<path d="M1335 2620 c-10 -11 -18 -34 -18 -51 0 -27 52 -83 459 -490 405 -405
463 -459 490 -459 39 0 74 36 74 76 0 25 -63 92 -458 486 -433 434 -459 458
-493 458 -23 0 -42 -7 -54 -20z"/>
<path d="M1090 2360 c-12 -12 -20 -33 -20 -53 0 -29 42 -74 458 -490 415 -415
460 -457 490 -457 42 0 72 30 72 72 0 30 -43 75 -458 490 -415 415 -460 458
-490 458 -19 0 -40 -8 -52 -20z"/>
</g>
</svg>
