<?xml version="1.0" standalone="no"?>
<!DOCTYPE svg PUBLIC "-//W3C//DTD SVG 20010904//EN"
 "http://www.w3.org/TR/2001/REC-SVG-20010904/DTD/svg10.dtd">
<svg version="1.0" xmlns="http://www.w3.org/2000/svg"
 width="512.000000pt" height="512.000000pt" viewBox="0 0 512.000000 512.000000"
 preserveAspectRatio="xMidYMid meet">

<g transform="translate(0.000000,512.000000) scale(0.100000,-0.100000)"
fill="#ffffff" stroke="none">
<path d="M3117 5007 c-53 -17 -98 -56 -145 -126 -64 -97 -100 -197 -148 -419
-70 -327 -105 -413 -218 -542 -36 -41 -157 -187 -268 -325 -410 -504 -506
-601 -622 -625 -70 -14 -128 -56 -155 -112 l-21 -44 0 -1072 c0 -877 2 -1079
13 -1105 24 -55 87 -104 153 -117 195 -39 284 -64 609 -170 660 -217 897 -257
1440 -247 334 6 417 20 560 91 239 119 365 337 366 634 l1 102 43 51 c123 144
184 392 141 574 -11 50 -11 51 30 118 68 110 89 190 89 337 0 90 -5 146 -19
201 l-19 77 35 48 c48 66 81 135 109 224 33 106 34 284 2 385 -56 178 -211
336 -393 403 l-75 27 -503 3 -503 3 6 22 c3 12 46 101 95 198 127 253 170 413
170 633 -1 205 -29 347 -94 470 -70 134 -171 218 -316 264 -130 41 -299 59
-363 39z"/>
<path d="M125 2951 c-22 -10 -52 -31 -67 -47 -61 -65 -58 -3 -58 -1166 0
-1007 1 -1065 19 -1103 23 -51 79 -101 128 -114 52 -15 984 -15 1036 0 49 13
105 63 128 114 18 38 19 96 19 1103 0 1163 3 1101 -58 1166 -15 16 -45 37 -67
47 -37 17 -74 19 -540 19 -466 0 -503 -2 -540 -19z m563 -1637 c144 -60 175
-239 59 -341 -78 -68 -186 -68 -264 0 -70 61 -91 152 -53 235 47 103 156 149
258 106z"/>
</g>
</svg>
