<?xml version="1.0" standalone="no"?>
<!DOCTYPE svg PUBLIC "-//W3C//DTD SVG 20010904//EN"
 "http://www.w3.org/TR/2001/REC-SVG-20010904/DTD/svg10.dtd">
<svg version="1.0" xmlns="http://www.w3.org/2000/svg"
 width="905.000000pt" height="1280.000000pt" viewBox="0 0 905.000000 1280.000000"
 preserveAspectRatio="xMidYMid meet">
<metadata>
Created by potrace 1.15, written by Peter Selinger 2001-2017
</metadata>
<g transform="translate(0.000000,1280.000000) scale(0.100000,-0.100000)"
fill="#ffffff" stroke="none">
<path d="M3530 10634 c-148 -39 -234 -103 -414 -310 -39 -43 -75 -83 -80 -89
-15 -14 -167 -182 -321 -355 -71 -80 -132 -147 -135 -150 -3 -3 -39 -43 -80
-89 -41 -47 -84 -94 -95 -106 -11 -11 -54 -59 -95 -105 -100 -113 -167 -187
-275 -305 -185 -201 -237 -286 -272 -434 -15 -65 -18 -124 -18 -401 l0 -325
83 -3 82 -3 0 -74 0 -75 98 0 c98 0 98 0 130 -33 l32 -33 0 -151 c0 -83 -3
-159 -6 -168 -4 -9 -36 -36 -73 -60 -36 -24 -79 -60 -94 -80 l-28 -35 -115 0
-114 0 2 -2017 c3 -2236 -2 -2060 69 -2179 19 -32 60 -78 94 -106 33 -26 87
-75 120 -107 104 -101 53 -94 680 -102 303 -4 1411 -8 2463 -8 l1913 -1 52 39
c67 49 130 118 157 171 15 28 25 77 32 144 7 65 11 706 12 1801 l1 1700 -62 3
-63 3 0 69 0 70 -167 2 -168 3 -3 741 -2 742 56 51 c84 77 93 80 260 86 l149
5 -1 868 c-1 563 -5 893 -12 940 -14 94 -40 142 -132 243 -133 146 -166 176
-226 205 l-59 29 -1660 2 c-1423 2 -1668 0 -1715 -13z m480 -1059 l0 -375
-190 0 -190 0 0 375 0 375 190 0 190 0 0 -375z m920 0 l0 -375 -210 0 -210 0
0 375 0 375 210 0 210 0 0 -375z m898 3 l-3 -373 -202 -3 -203 -2 0 375 0 375
205 0 205 0 -2 -372z m902 -3 l0 -375 -200 0 -200 0 0 375 0 375 200 0 200 0
0 -375z"/>
</g>
</svg>
