<?xml version="1.0" standalone="no"?>
<!DOCTYPE svg PUBLIC "-//W3C//DTD SVG 20010904//EN"
 "http://www.w3.org/TR/2001/REC-SVG-20010904/DTD/svg10.dtd">
<svg version="1.0" xmlns="http://www.w3.org/2000/svg"
 width="512.000000pt" height="512.000000pt" viewBox="0 0 512.000000 512.000000"
 preserveAspectRatio="xMidYMid meet">

<g transform="translate(0.000000,512.000000) scale(0.100000,-0.100000)"
fill="#ffffff" stroke="none">
<path d="M2376 5109 c-206 -27 -425 -111 -616 -237 -104 -69 -295 -258 -368
-364 -69 -101 -145 -254 -181 -366 -31 -94 -61 -233 -61 -282 0 -19 -14 -45
-42 -77 -85 -98 -83 -83 -86 -562 -3 -473 -1 -490 63 -574 24 -32 55 -55 100
-78 124 -61 265 -35 352 65 l38 44 55 -112 c124 -253 310 -442 538 -550 l61
-29 42 47 c54 61 112 100 187 125 57 19 84 21 370 21 361 0 385 4 464 77 27
26 68 76 92 112 45 68 138 249 149 291 6 22 8 21 52 -26 l46 -49 -6 -106 c-3
-58 -12 -130 -21 -160 -47 -160 -182 -298 -343 -350 -60 -20 -94 -23 -406 -28
-336 -6 -340 -6 -373 -29 -98 -70 -95 -223 5 -292 l37 -25 360 0 c406 0 426 3
584 76 227 105 394 293 470 529 31 96 42 172 42 285 l0 102 37 39 c20 21 46
59 57 84 20 43 21 60 21 490 0 504 3 484 -83 583 -28 32 -42 58 -42 77 0 102
-66 324 -140 472 -74 148 -142 240 -270 368 -195 196 -390 308 -650 375 -168
43 -363 56 -534 34z m399 -368 c421 -87 748 -419 831 -843 l17 -86 -44 -51
-44 -51 -37 81 c-131 283 -378 515 -643 604 -141 47 -337 59 -483 29 -303 -62
-579 -291 -738 -610 l-50 -102 -43 49 -43 50 12 65 c75 431 403 773 830 864
117 26 316 26 435 1z"/>
<path d="M1504 1975 c-441 -131 -788 -403 -1008 -793 -135 -238 -201 -482
-213 -782 -8 -197 5 -249 75 -319 89 -89 -120 -81 2202 -81 2322 0 2113 -8
2202 81 70 70 83 122 75 319 -9 225 -44 396 -118 584 -124 314 -348 588 -638
780 l-74 49 -35 -44 c-133 -166 -327 -299 -532 -363 -146 -46 -245 -56 -585
-56 -327 0 -377 5 -463 49 -61 31 -136 105 -169 166 -30 57 -31 57 -128 96
-165 64 -347 182 -455 293 -24 25 -47 46 -50 45 -3 0 -41 -11 -86 -24z"/>
</g>
</svg>
